<?xml version="1.0" standalone="no"?>
<!DOCTYPE svg PUBLIC "-//W3C//DTD SVG 20010904//EN"
 "http://www.w3.org/TR/2001/REC-SVG-20010904/DTD/svg10.dtd">
<svg version="1.0" xmlns="http://www.w3.org/2000/svg"
 width="260.000000pt" height="260.000000pt" viewBox="0 0 260.000000 260.000000"
 preserveAspectRatio="xMidYMid meet">
<metadata>
Created by potrace 1.11, written by Peter Selinger 2001-2013
</metadata>
<g transform="translate(0.000000,260.000000) scale(0.100000,-0.100000)"
fill="#000000" stroke="none">
<path d="M1230 2231 c-82 -26 -130 -70 -167 -150 -57 -119 -2 -268 122 -334
31 -17 58 -22 115 -22 85 0 133 20 186 77 54 57 69 95 69 178 0 54 -6 85 -19
110 -26 49 -74 98 -121 122 -43 22 -144 33 -185 19z"/>
<path d="M535 1709 c-28 -11 -87 -50 -110 -74 -24 -24 -46 -68 -59 -117 -29
-113 28 -232 138 -291 57 -30 174 -30 231 0 93 49 146 143 140 250 -5 94 -56
172 -140 215 -47 24 -155 33 -200 17z"/>
<path d="M1880 1699 c-55 -25 -105 -71 -133 -124 -29 -53 -30 -173 -3 -225 48
-91 127 -142 226 -146 104 -5 193 47 243 141 30 56 30 173 0 230 -64 122 -215
178 -333 124z"/>
<path d="M775 857 c-104 -50 -150 -123 -150 -237 0 -110 43 -182 138 -232 59
-31 175 -32 232 -1 47 25 95 74 121 123 25 48 25 171 0 220 -46 89 -125 141
-226 147 -53 3 -74 0 -115 -20z"/>
<path d="M1650 871 c-71 -23 -131 -74 -166 -141 -27 -51 -26 -172 3 -225 74
-140 251 -187 378 -101 76 52 110 118 110 216 0 109 -46 184 -140 232 -43 22
-144 33 -185 19z"/>
</g>
</svg>
